<svg xmlns="http://www.w3.org/2000/svg" width="250" height="60" viewBox="0 0 250 60">
  <g fill="none" fill-rule="evenodd">
    <path fill="#476F9A" fill-rule="nonzero" d="M1,1 L1,59 L249,59 L249,1 L1,1 Z M0,0 L250,0 L250,60 L0,60 L0,0 Z"/>
    <path fill="#476F9A" d="M106.488,25 L106.488,17.941 L107.671,17.941 L107.671,25 L106.488,25 Z M107.086,16.485 C106.618,16.485 106.267,16.16 106.267,15.718 C106.267,15.237 106.618,14.951 107.086,14.951 C107.554,14.951 107.905,15.237 107.905,15.718 C107.905,16.16 107.554,16.485 107.086,16.485 Z M113.495,14.717 L113.235,15.614 C112.975,15.497 112.689,15.432 112.442,15.432 C111.766,15.432 111.441,15.913 111.441,16.823 L111.441,17.941 L112.936,17.941 L112.936,18.903 L111.441,18.903 L111.441,25 L110.258,25 L110.258,18.903 L109.296,18.903 L109.296,18.006 L110.258,17.941 L110.258,16.81 C110.258,15.38 110.908,14.483 112.312,14.483 C112.741,14.483 113.157,14.574 113.495,14.717 Z M114.288,25 L114.288,17.941 L115.263,17.941 L115.367,19.228 L115.406,19.228 C115.9,18.331 116.615,17.759 117.408,17.759 C117.72,17.759 117.941,17.798 118.162,17.915 L117.941,18.955 C117.707,18.864 117.538,18.838 117.252,18.838 C116.667,18.838 115.939,19.254 115.471,20.463 L115.471,25 L114.288,25 Z M120.957,25.169 C119.774,25.169 118.89,24.441 118.89,23.167 C118.89,21.633 120.229,20.866 123.232,20.528 C123.232,19.618 122.933,18.747 121.776,18.747 C120.957,18.747 120.216,19.124 119.657,19.501 L119.189,18.682 C119.839,18.266 120.84,17.759 121.971,17.759 C123.687,17.759 124.415,18.916 124.415,20.658 L124.415,25 L123.44,25 L123.336,24.155 L123.297,24.155 C122.621,24.714 121.828,25.169 120.957,25.169 Z M121.295,24.22 C121.984,24.22 122.543,23.895 123.232,23.284 L123.232,21.308 C120.853,21.594 120.047,22.179 120.047,23.089 C120.047,23.895 120.593,24.22 121.295,24.22 Z M126.664,25 L126.664,17.941 L127.639,17.941 L127.743,18.968 L127.782,18.968 C128.393,18.292 129.134,17.759 129.979,17.759 C131.058,17.759 131.643,18.279 131.929,19.111 C132.657,18.318 133.398,17.759 134.256,17.759 C135.712,17.759 136.401,18.721 136.401,20.528 L136.401,25 L135.218,25 L135.218,20.684 C135.218,19.358 134.802,18.799 133.905,18.799 C133.359,18.799 132.787,19.15 132.124,19.878 L132.124,25 L130.941,25 L130.941,20.684 C130.941,19.358 130.525,18.799 129.628,18.799 C129.095,18.799 128.497,19.15 127.847,19.878 L127.847,25 L126.664,25 Z M141.549,25.169 C139.677,25.169 138.169,23.804 138.169,21.477 C138.169,19.189 139.716,17.759 141.354,17.759 C143.148,17.759 144.162,19.059 144.162,21.074 C144.162,21.334 144.136,21.581 144.11,21.75 L139.352,21.75 C139.43,23.258 140.353,24.22 141.692,24.22 C142.381,24.22 142.94,24.012 143.46,23.661 L143.889,24.441 C143.265,24.844 142.511,25.169 141.549,25.169 Z M139.339,20.905 L143.122,20.905 C143.122,19.475 142.472,18.708 141.367,18.708 C140.366,18.708 139.482,19.514 139.339,20.905 Z M44.998,35.006 L44.569,34.837 C44.764,34.278 45.011,33.368 45.128,32.77 L45.7,32.978 C45.466,33.654 45.219,34.486 44.998,35.006 Z M42.489,32.939 L42.97,32.809 C43.204,33.433 43.373,34.252 43.412,34.772 L42.892,34.915 C42.866,34.382 42.71,33.563 42.489,32.939 Z M42.307,32.302 L42.307,35.422 L43.711,35.422 L43.711,32.302 L42.307,32.302 Z M45.869,35.422 L45.869,32.302 L44.374,32.302 L44.374,35.422 L45.869,35.422 Z M41.228,39.751 L41.176,38.919 C41.852,38.893 42.684,38.841 43.607,38.802 L43.607,37.788 L41.462,37.788 L41.462,37.021 L43.607,37.021 L43.607,36.124 L41.553,36.124 L41.553,31.6 L46.649,31.6 L46.649,36.124 L44.478,36.124 L44.478,37.021 L46.727,37.021 L46.727,37.788 L44.478,37.788 L44.478,38.75 C45.271,38.711 46.103,38.659 46.935,38.607 L46.909,39.387 C44.842,39.543 42.723,39.673 41.228,39.751 Z M41.618,42.988 L40.968,42.637 C41.475,42.104 41.722,41.168 41.826,40.271 L42.515,40.453 C42.385,41.415 42.19,42.416 41.618,42.988 Z M42.931,40.31 L43.555,40.245 C43.763,40.947 43.906,41.883 43.906,42.481 L43.243,42.572 C43.243,41.961 43.113,41.038 42.931,40.31 Z M44.166,40.245 L44.777,40.115 C45.076,40.765 45.362,41.623 45.453,42.195 L44.79,42.338 C44.725,41.766 44.452,40.908 44.166,40.245 Z M45.401,40.076 L45.999,39.829 C46.454,40.427 46.922,41.233 47.117,41.766 L46.467,42.052 C46.285,41.506 45.83,40.674 45.401,40.076 Z M51.524,41.493 L51.524,38.152 L48.248,38.152 L48.248,41.493 L51.524,41.493 Z M52.954,34.85 L50.185,34.85 L50.185,37.255 L52.434,37.255 L52.434,42.923 L51.524,42.923 L51.524,42.364 L48.248,42.364 L48.248,42.975 L47.364,42.975 L47.364,37.255 L49.236,37.255 L49.236,31.145 L50.185,31.145 L50.185,33.94 L52.954,33.94 L52.954,34.85 Z M64.563,32.302 L62.678,32.302 L62.678,33.173 L64.563,33.173 L64.563,32.302 Z M64.719,35.474 L62.977,35.474 C62.093,35.474 61.872,35.149 61.872,34.278 L61.872,31.652 L65.408,31.652 L65.408,33.836 L62.678,33.836 L62.678,34.304 C62.678,34.655 62.73,34.772 63.016,34.772 L64.693,34.772 C64.94,34.772 65.317,34.759 65.512,34.72 C65.525,34.928 65.564,35.227 65.59,35.409 C65.421,35.461 65.057,35.474 64.719,35.474 Z M60.403,32.289 L58.544,32.289 L58.544,33.16 L60.403,33.16 L60.403,32.289 Z M58.544,34.811 L61.092,34.434 C61.027,34.655 60.949,34.967 60.91,35.136 C58.336,35.591 57.985,35.669 57.764,35.799 C57.712,35.578 57.53,35.214 57.426,35.032 C57.569,34.941 57.764,34.785 57.764,34.291 L57.764,31.639 L61.235,31.639 L61.235,33.823 L58.544,33.823 L58.544,34.811 Z M60.455,37.385 L60.455,38.581 L62.561,38.581 L62.561,37.385 L60.455,37.385 Z M65.785,38.581 L65.785,39.348 L57.309,39.348 L57.309,38.581 L59.558,38.581 L59.558,37.385 L57.803,37.385 L57.803,36.631 L59.558,36.631 L59.558,35.695 L60.455,35.695 L60.455,36.631 L62.561,36.631 L62.561,35.695 L63.458,35.695 L63.458,36.631 L65.265,36.631 L65.265,37.385 L63.458,37.385 L63.458,38.581 L65.785,38.581 Z M65.512,40.96 L64.667,41.415 C64.108,40.921 63.107,40.31 62.158,39.829 L62.782,39.374 C63.783,39.842 64.875,40.466 65.512,40.96 Z M60.091,39.4 L60.949,39.686 C60.247,40.349 59.181,41.012 58.284,41.454 C58.115,41.285 57.777,40.973 57.556,40.856 C58.492,40.479 59.48,39.946 60.091,39.4 Z M56.607,33.342 L55.71,33.641 C55.515,33.069 55.164,32.146 54.891,31.457 L55.749,31.223 C56.035,31.899 56.412,32.783 56.607,33.342 Z M56.62,37.151 L57.179,37.398 C56.971,38.542 56.607,39.725 56.113,40.648 C56.373,40.791 56.685,41.051 57.205,41.363 C58.128,41.922 59.298,42.013 60.832,42.013 C62.509,42.013 64.615,41.883 66.058,41.74 C65.941,42 65.798,42.455 65.785,42.741 C64.81,42.806 62.34,42.884 60.806,42.884 C59.103,42.884 57.959,42.741 56.997,42.169 C56.477,41.857 56.009,41.415 55.71,41.415 C55.424,41.415 54.982,42.234 54.605,43.053 L53.942,42.182 C54.293,41.675 54.657,41.22 54.982,40.934 L54.956,40.921 C55.515,40.18 55.918,39.062 56.165,38.035 L54.475,38.035 C54.839,37.268 55.268,36.163 55.606,35.136 L54.15,35.136 L54.15,34.265 L56.854,34.265 C56.529,35.201 56.113,36.293 55.749,37.19 L56.464,37.19 L56.62,37.151 Z M74.95,39.413 L74.95,31.002 L79.058,31.002 L79.058,31.899 L75.912,31.899 L75.912,39.413 L74.95,39.413 Z M90.498,35.812 L90.498,34.551 L86.702,34.551 L86.702,35.812 L90.498,35.812 Z M90.498,37.775 L90.498,36.501 L86.702,36.501 L86.702,37.775 L90.498,37.775 Z M90.498,39.777 L90.498,38.503 L86.702,38.503 L86.702,39.777 L90.498,39.777 Z M85.805,33.797 L87.768,33.797 C87.859,33.407 87.95,32.965 88.015,32.562 L85.311,32.562 L85.311,31.73 L91.863,31.73 L91.863,32.562 L89.081,32.562 C88.964,32.991 88.834,33.42 88.717,33.797 L91.408,33.797 L91.408,40.531 L85.805,40.531 L85.805,33.797 Z M84.479,38.802 L83.764,38.607 C83.985,38.126 84.245,37.411 84.466,36.709 L83.101,36.709 L83.101,41.857 C83.101,42.364 82.997,42.65 82.62,42.793 C82.256,42.949 81.684,42.962 80.787,42.962 C80.748,42.702 80.618,42.299 80.488,42.052 C81.151,42.065 81.749,42.065 81.918,42.052 C82.113,42.052 82.165,42 82.165,41.844 L82.165,36.709 L80.033,36.709 L80.033,35.851 L83.348,35.851 C82.672,35.227 81.606,34.486 80.683,33.992 L81.203,33.368 C81.619,33.589 82.074,33.862 82.516,34.135 C82.958,33.706 83.426,33.147 83.803,32.614 L80.319,32.614 L80.319,31.756 L84.414,31.756 L84.609,31.691 L85.207,32.107 C84.674,32.978 83.92,33.914 83.192,34.603 C83.595,34.889 83.959,35.188 84.206,35.448 L83.894,35.851 L84.843,35.851 L84.986,35.812 L85.584,35.968 C85.233,36.969 84.843,38.1 84.479,38.802 Z M87.092,40.778 L87.937,41.272 C87.222,41.948 86.026,42.65 84.986,43.027 C84.843,42.845 84.531,42.546 84.349,42.377 C85.363,42.013 86.533,41.35 87.092,40.778 Z M89.094,41.324 L89.822,40.83 C90.602,41.285 91.603,41.987 92.123,42.468 L91.369,43.027 C90.875,42.546 89.887,41.818 89.094,41.324 Z M104.746,32.549 L100.443,32.549 C100.157,33.017 99.78,33.459 99.312,33.862 C99.156,33.667 98.857,33.407 98.662,33.316 C99.455,32.679 99.949,31.847 100.209,31.132 L101.08,31.262 C101.002,31.47 100.911,31.678 100.807,31.886 L104.746,31.886 L104.746,32.549 Z M100.248,34.707 L100.248,35.656 L101.041,35.656 L101.041,34.707 L100.248,34.707 Z M101.6,34.707 L101.6,35.656 L102.432,35.656 L102.432,34.707 L101.6,34.707 Z M102.991,34.707 L102.991,35.656 L103.823,35.656 L103.823,34.707 L102.991,34.707 Z M99.546,36.202 L99.546,34.174 L104.538,34.174 L104.538,36.202 L99.546,36.202 Z M100.248,33.056 L104.096,33.056 L104.096,33.667 L100.248,33.667 L100.248,33.056 Z M94.541,34.733 L94.541,35.487 L95.893,35.487 L95.893,34.733 L94.541,34.733 Z M95.893,32.185 L94.541,32.185 L94.541,32.822 L95.893,32.822 L95.893,32.185 Z M97.648,34.148 L97.648,33.42 L94.541,33.42 L94.541,34.148 L97.648,34.148 Z M98.961,35.487 L98.961,36.111 L93.696,36.111 L93.696,31.561 L98.857,31.561 L98.857,32.185 L96.686,32.185 L96.686,32.822 L98.493,32.822 L98.493,34.733 L96.686,34.733 L96.686,35.487 L98.961,35.487 Z M95.971,39.608 L95.971,40.245 L101.99,40.245 L101.99,39.608 L95.971,39.608 Z M95.971,38.412 L95.971,39.036 L101.99,39.036 L101.99,38.412 L95.971,38.412 Z M95.971,37.229 L95.971,37.84 L101.99,37.84 L101.99,37.229 L95.971,37.229 Z M101.418,42.065 L103.472,42.065 C103.953,42.065 104.031,41.922 104.083,40.869 C104.291,40.999 104.642,41.116 104.902,41.181 C104.798,42.507 104.512,42.832 103.563,42.832 L101.327,42.832 C100.092,42.832 99.78,42.611 99.78,41.74 L99.78,40.817 L97.882,40.817 C97.44,42.13 96.335,42.702 93.527,42.988 C93.462,42.78 93.241,42.416 93.085,42.234 C95.568,42.052 96.53,41.688 96.907,40.817 L95.048,40.817 L95.048,36.644 L102.952,36.644 L102.952,40.817 L100.716,40.817 L100.716,41.727 C100.716,42.026 100.82,42.065 101.418,42.065 Z M110.05,34.707 L110.05,43.118 L105.942,43.118 L105.942,42.221 L109.088,42.221 L109.088,34.707 L110.05,34.707 Z M124.922,35.838 L121.529,35.838 L121.529,38.802 L124.922,38.802 L124.922,35.838 Z M125.871,39.725 L121.529,39.725 L121.529,40.765 L120.593,40.765 L120.593,34.902 L125.871,34.902 L125.871,39.725 Z M130.772,32.042 L130.772,33.004 L129.173,33.004 L129.173,41.61 C129.173,42.312 129.004,42.65 128.51,42.793 C127.99,42.975 127.093,42.975 125.819,42.975 C125.754,42.702 125.559,42.221 125.403,41.948 C126.443,42 127.509,41.987 127.808,41.974 C128.094,41.961 128.185,41.87 128.185,41.597 L128.185,33.004 L119.267,33.004 L119.267,32.042 L130.772,32.042 Z M132.501,42.585 L132.501,41.714 L143.551,41.714 L143.551,42.585 L132.501,42.585 Z M140.587,38.49 L140.587,37.411 L135.348,37.411 L135.348,38.49 L140.587,38.49 Z M140.587,40.245 L140.587,39.166 L135.348,39.166 L135.348,40.245 L140.587,40.245 Z M134.399,36.722 L141.575,36.722 L141.575,40.934 L134.399,40.934 L134.399,36.722 Z M143.733,32.77 L143.733,33.628 L139.547,33.628 C141.055,34.525 142.758,35.617 143.707,36.397 L143.083,37.073 C142.082,36.215 140.106,34.889 138.442,33.901 L138.442,36.332 L137.493,36.332 L137.493,33.693 C136.323,35.214 134.399,36.553 132.644,37.255 C132.488,37.034 132.202,36.67 132.007,36.488 C133.593,35.942 135.335,34.85 136.44,33.628 L132.28,33.628 L132.28,32.77 L137.493,32.77 L137.493,31.132 L138.442,31.132 L138.442,32.77 L143.733,32.77 Z M154.471,38.529 L154.471,37.632 L148.829,37.632 L148.829,38.529 L154.471,38.529 Z M148.829,41.74 L154.471,41.74 L154.471,40.778 L148.829,40.778 L148.829,41.74 Z M154.471,40.102 L154.471,39.192 L148.829,39.192 L148.829,40.102 L154.471,40.102 Z M156.694,35.968 L149.479,35.968 C149.31,36.267 149.141,36.579 148.946,36.865 L155.42,36.865 L155.42,43.027 L154.471,43.027 L154.471,42.52 L148.829,42.52 L148.829,43.027 L147.906,43.027 L147.906,38.204 C147.243,38.932 146.476,39.582 145.592,40.115 C145.462,39.894 145.176,39.543 144.994,39.374 C146.45,38.529 147.568,37.32 148.374,35.968 L145.306,35.968 L145.306,35.162 L148.829,35.162 C148.985,34.85 149.141,34.525 149.258,34.213 L146.255,34.213 L146.255,33.433 L149.544,33.433 C149.648,33.134 149.739,32.835 149.817,32.523 C148.608,32.588 147.386,32.614 146.268,32.614 C146.255,32.393 146.164,32.081 146.073,31.873 C149.219,31.847 153.145,31.639 155.199,31.223 L155.81,31.925 C154.51,32.198 152.742,32.367 150.883,32.471 C150.792,32.796 150.688,33.108 150.584,33.433 L155.94,33.433 L155.94,34.213 L150.311,34.213 C150.181,34.525 150.038,34.85 149.882,35.162 L156.694,35.162 L156.694,35.968 Z M165.846,35.526 L169.096,35.526 L169.252,35.487 L169.837,35.656 C169.603,36.644 169.304,37.801 169.031,38.516 L168.303,38.321 C168.485,37.827 168.667,37.073 168.81,36.358 L165.625,36.358 C165.378,37.307 165.027,38.139 164.611,38.802 C164.442,38.672 164.052,38.412 163.831,38.295 C164.52,37.307 164.949,35.773 165.183,34.2 L166.067,34.343 C166.002,34.733 165.924,35.149 165.846,35.526 Z M169.005,31.548 L169.005,33.888 L159.034,33.888 L159.034,31.548 L159.996,31.548 L159.996,33.056 L163.493,33.056 L163.493,31.119 L164.468,31.119 L164.468,33.056 L168.017,33.056 L168.017,31.548 L169.005,31.548 Z M162.375,38.412 L162.375,36.735 L160.074,36.735 L160.074,38.412 L162.375,38.412 Z M160.074,41.012 L162.375,41.012 L162.375,39.218 L160.074,39.218 L160.074,41.012 Z M164.299,36.735 L163.285,36.735 L163.285,42.806 L162.375,42.806 L162.375,41.896 L160.074,41.896 L160.074,42.988 L159.151,42.988 L159.151,36.735 L158.111,36.735 L158.111,35.851 L159.151,35.851 L159.151,34.486 L160.074,34.486 L160.074,35.851 L162.375,35.851 L162.375,34.486 L163.285,34.486 L163.285,35.851 L164.299,35.851 L164.299,36.735 Z M167.367,37.047 L167.367,37.489 C167.367,37.827 167.354,38.217 167.289,38.672 C167.757,40.219 168.693,41.61 169.928,42.26 C169.707,42.442 169.421,42.754 169.278,43.001 C168.277,42.39 167.458,41.337 166.899,40.076 C166.496,41.051 165.742,42.091 164.325,43.001 C164.182,42.793 163.857,42.533 163.597,42.39 C166.353,40.739 166.418,38.646 166.418,37.476 L166.418,37.047 L167.367,37.047 Z M173.49,31.912 L177.624,31.912 C177.624,34.213 177.923,39.114 183.019,42.143 C182.798,42.299 182.408,42.715 182.239,42.949 C179.041,41.012 177.663,38.165 177.078,35.708 C176.116,39.075 174.478,41.441 171.891,42.962 C171.709,42.767 171.28,42.364 171.02,42.195 C173.893,40.7 175.492,38.087 176.285,34.447 L176.857,34.538 C176.766,33.94 176.714,33.368 176.688,32.874 L173.49,32.874 L173.49,31.912 Z M195.109,34.005 L195.109,41.727 C195.109,42.338 194.979,42.65 194.55,42.819 C194.108,42.975 193.367,42.975 192.262,42.975 C192.223,42.702 192.08,42.26 191.937,42 C192.782,42.026 193.588,42.026 193.848,42.013 C194.082,42 194.134,41.935 194.134,41.727 L194.134,34.954 L190.819,34.954 C191.313,36.943 192.288,38.373 193.991,39.101 C193.783,39.309 193.471,39.686 193.315,39.946 C191.612,39.101 190.611,37.645 190.052,35.695 C189.506,37.684 188.44,39.127 186.711,40.011 C186.568,39.79 186.269,39.426 186.061,39.244 C187.803,38.399 188.869,36.995 189.311,34.954 L185.931,34.954 L185.931,42.988 L184.969,42.988 L184.969,34.005 L189.701,34.005 C189.636,33.55 189.584,33.069 189.558,32.562 L187.218,32.562 L187.218,31.704 L190.377,31.704 C190.416,32.523 190.494,33.29 190.611,34.005 L195.109,34.005 Z M198.554,33.199 L198.554,34.668 L197.618,34.668 L197.618,32.315 L202.662,32.315 C202.519,31.977 202.324,31.574 202.142,31.262 L203.13,31.028 C203.364,31.418 203.637,31.925 203.793,32.315 L208.382,32.315 L208.382,34.668 L207.407,34.668 L207.407,33.199 L198.554,33.199 Z M204.118,34.369 L204.755,33.823 C205.938,34.525 207.433,35.578 208.148,36.319 L207.472,36.956 C206.77,36.215 205.314,35.11 204.118,34.369 Z M200.829,33.81 L201.726,34.109 C200.868,35.24 199.555,36.306 198.372,36.982 C198.229,36.8 197.904,36.423 197.696,36.254 C198.853,35.669 200.075,34.759 200.829,33.81 Z M200.387,38.659 L205.821,38.659 C204.807,38.022 203.884,37.268 203.026,36.332 C202.285,37.19 201.375,37.983 200.387,38.659 Z M200.322,41.701 L205.652,41.701 L205.652,39.53 L200.322,39.53 L200.322,41.701 Z M202.935,34.941 L203.78,35.318 C203.702,35.422 203.624,35.539 203.533,35.656 C205.002,37.32 206.835,38.334 208.915,39.153 C208.694,39.361 208.434,39.699 208.291,39.972 C207.719,39.725 207.16,39.439 206.627,39.14 L206.627,42.962 L205.652,42.962 L205.652,42.572 L200.322,42.572 L200.322,43.014 L199.386,43.014 L199.386,39.283 C198.827,39.608 198.242,39.894 197.644,40.128 C197.501,39.894 197.254,39.569 197.033,39.348 C199.412,38.464 201.7,36.852 202.935,34.941 Z"/>
  </g>
</svg>
